<svg viewBox="0 0 512 512" fill="none" xmlns="http://www.w3.org/2000/svg">
<path d="M216.314 449C210.704 449 206.965 443.388 205.095 432.165C204.16 430.294 203.693 427.956 203.693 425.15C203.693 421.409 203.693 417.668 203.693 413.926L223.325 307.303L150.405 362.018C122.359 381.659 103.662 388.206 94.313 381.659C92.4433 379.788 91.5084 377.45 91.5084 374.644C91.5084 368.097 97.1176 359.212 108.336 347.988L200.888 280.647H112.543C77.9528 280.647 59.2554 275.503 56.4507 265.215C53.6461 255.862 63.9297 249.315 87.3015 245.574L212.107 239.962C205.563 229.674 197.616 218.45 188.267 206.291C179.854 193.197 170.505 179.168 160.221 164.203C143.394 144.562 134.98 129.13 134.98 117.906C134.98 111.359 138.252 108.085 144.796 108.085C151.34 108.085 160.689 113.697 172.842 124.921L244.36 214.709L269.601 110.891C272.406 94.9913 278.015 79.559 286.429 64.5942C293.908 59.9178 298.115 65.5295 299.05 81.4295C301.854 103.877 296.712 150.174 283.624 220.321L364.958 164.203C389.265 146.432 403.755 138.482 408.429 140.353C415.908 143.159 415.441 150.641 407.027 162.8C400.483 172.153 388.797 183.844 371.97 197.874C356.077 210.968 335.977 226.4 311.67 244.171H422.453C440.215 244.171 450.499 246.041 453.303 249.782C457.978 253.524 456.575 257.732 449.096 262.409C435.073 271.762 413.104 277.374 383.188 279.244C374.774 280.179 364.023 280.647 350.935 280.647C337.847 280.647 321.954 281.115 303.257 282.05L367.763 369.032C386.46 393.35 395.341 407.379 394.406 411.121C391.602 418.603 384.123 418.135 371.97 409.718C362.621 403.171 349.065 391.479 331.303 374.644C314.475 357.809 293.908 336.297 269.601 310.109L244.36 398.494C237.816 415.329 234.544 425.15 234.544 427.956C228.934 441.985 222.858 449 216.314 449Z" fill="currentColor"/>
</svg>
