<svg xmlns="http://www.w3.org/2000/svg" viewBox="0 0 166 192" fill="#1d34f3">
    <path d="M137.954 26.8921C133.611 24.0908 129.082 22.0243 124.451 20.6696C120.622 15.8133 116.032 11.5655 110.752 8.16724C84.6518 -8.64033 51.2852 1.32481 36.2178 30.4281C21.1606 59.5313 30.1043 96.7514 56.2048 113.559C61.4948 116.969 67.0937 119.265 72.7645 120.539C57.728 101.481 54.4757 73.1244 66.4864 49.9221C78.4972 26.7313 102.128 15.687 124.451 20.6811C141.412 39.8077 145.58 69.9098 132.942 94.329L158.033 110.494C173.183 81.2182 164.198 43.7915 137.954 26.8921Z"/>
    <path d="M108.874 78.4409C103.584 75.0312 97.9952 72.7236 92.314 71.4492C107.351 90.5185 110.603 118.876 98.5921 142.078C86.5814 165.28 62.951 176.324 40.6278 171.33C23.7798 152.284 19.7042 122.239 32.3427 97.8201L7.39499 81.7473C-7.75478 111.023 1.1169 148.369 27.207 165.177H27.1967C31.5194 167.955 36.0272 169.999 40.6278 171.342C44.4564 176.187 49.0466 180.423 54.3264 183.833C80.4268 200.64 113.793 190.675 128.861 161.572C143.918 132.469 134.974 95.2485 108.874 78.4409Z"/>
</svg>
